{"title":"Cum.Party.Sluts.Loz.Lorrimar.XXX720.mp4","uid":10615394,"size":225978319,"categoryP":"porn","categoryS":"movies","magnet":"?xt=urn:btih:1503bfaef106eccfcdebc6f03544acceb3904ad9&amp;dn=Cum.Party.Sluts.Loz.Lorrimar.XXX720.mp4&amp;tr=udp%3A%2F%2Ftracker.openbittorrent.com%3A80&amp;tr=udp%3A%2F%2Fopen.demonii.com%3A1337&amp;tr=udp%3A%2F%2Ftracker.coppersurfer.tk%3A6969&amp;tr=udp%3A%2F%2Fexodus.desync.com%3A6969","seeders":2,"leechers":0,"uploader":"XXXmegathor","files":1,"time":1406107128,"description":"Cum.Party.Sluts.Loz.Lorrimar.XXX720\n\nSCREENIES &lt;a href=&quot;\nhttp://www.xxxtrapics.com/image/MW&quot; rel=&quot;nofollow&quot; target=&quot;_NEW&quot;&gt;\nhttp://www.xxxtrapics.com/image/MW&lt;/a&gt;\n\n\nDuration : 20mn 31s\nBit rate mode : Constant\nBit rate : 1 400 Kbps\nWidth : 640 pixels\nHeight : 360 pixels\nDisplay aspect ratio : 16:9\nFrame rate mode : Constant\nFrame rate : 25.000 fps\nStandard : PAL\nColor space : YUV\nChroma subsampling : 4:2:0\nBit depth : 8 bits\nScan type : Progressive\nBits/(Pixel*Frame) : 0.243\nStream size : 205 MiB (95%)\nEncoded date : UTC 2012-03-31 11:56:01\nTagged date : UTC 2012-03-31 11:56:01\n\nAudio\nID : 1\nFormat : AAC\nFormat/Info : Advanced Audio Codec\nFormat profile : LC\nCodec ID : 40\nDuration : 20mn 31s\nBit rate mode : Variable\nBit rate : 64.0 Kbps\nChannel(s) : 2 channels\nChannel positions : Front: L R\nSampling rate : 44.1 KHz\nCompression mode : Lossy\nStream size : 9.39 MiB (4%)\nEncoded date : UTC 2012-03-31 11:56:01\nTagged date : UTC 2012-03-31 11:56:01\n\n\n","torrent":{"xt":"urn:btih:1503bfaef106eccfcdebc6f03544acceb3904ad9","amp;dn":"Cum.Party.Sluts.Loz.Lorrimar.XXX720.mp4","amp;tr":["udp%3A%2F%2Ftracker.openbittorrent.com%3A80","udp%3A%2F%2Fopen.demonii.com%3A1337","udp%3A%2F%2Ftracker.coppersurfer.tk%3A6969","udp%3A%2F%2Fexodus.desync.com%3A6969"],"infoHash":"1503bfaef106eccfcdebc6f03544acceb3904ad9","infoHashBuffer":{"type":"Buffer","data":[21,3,191,174,241,6,236,207,205,235,198,240,53,68,172,206,179,144,74,217]},"announce":[],"urlList":[]}}